<svg width="120" height="48" viewBox="0 0 120 48" fill="none" xmlns="http://www.w3.org/2000/svg">
  <rect x="1" y="1" width="118" height="46" rx="8" fill="#A50064" stroke="#A50064" stroke-width="2"/>
  <path d="M24 32V16H33.6L38 22.5L42.4 16H52V32H45.5V23.7L38 33H37.6L30.1 23.7V32H24Z" fill="white"/>
  <path d="M57 24C57 19 61.2 15.6 67.2 15.6C73.2 15.6 77.4 19 77.4 24C77.4 29 73.2 32.4 67.2 32.4C61.2 32.4 57 29 57 24ZM70.1 24C70.1 22.2 68.9 21.1 67.2 21.1C65.5 21.1 64.3 22.2 64.3 24C64.3 25.8 65.5 26.9 67.2 26.9C68.9 26.9 70.1 25.8 70.1 24Z" fill="white"/>
  <path d="M82 24C82 19 86.2 15.6 92.2 15.6C98.2 15.6 102.4 19 102.4 24C102.4 29 98.2 32.4 92.2 32.4C86.2 32.4 82 29 82 24ZM95.1 24C95.1 22.2 93.9 21.1 92.2 21.1C90.5 21.1 89.3 22.2 89.3 24C89.3 25.8 90.5 26.9 92.2 26.9C93.9 26.9 95.1 25.8 95.1 24Z" fill="white"/>
</svg>
